<svg width="15" height="14" viewBox="0 0 15 14" fill="none" xmlns="http://www.w3.org/2000/svg">
<g clip-path="url(#clip0)">
<path d="M3.57177 5.69625C3.8447 4.87051 4.37144 4.15206 5.07683 3.64338C5.78223 3.13471 6.63026 2.8618 7.49993 2.86358C8.48577 2.86358 9.3771 3.21358 10.0771 3.78642L12.1141 1.75C10.8728 0.667917 9.28202 0 7.49993 0C4.74077 0 2.36543 1.57383 1.22327 3.87917L3.57177 5.69625Z" fill="#EA4335"/>
<path d="M9.85652 10.5077C9.22069 10.9178 8.41335 11.1365 7.49985 11.1365C6.63364 11.1383 5.78882 10.8676 5.08499 10.3627C4.38116 9.85774 3.85399 9.14422 3.5781 8.32312L1.22144 10.1122C1.79966 11.2825 2.69451 12.2673 3.80433 12.9545C4.91416 13.6418 6.19447 14.004 7.49985 14.0001C9.21077 14.0001 10.8453 13.3917 12.0697 12.2501L9.8571 10.5077H9.85652Z" fill="#34A853"/>
<path d="M12.0698 12.2499C13.3503 11.0552 14.1815 9.27722 14.1815 6.99988C14.1815 6.58572 14.1179 6.14063 14.0228 5.72705H7.5V8.43197H11.2543C11.0694 9.34138 10.5718 10.0455 9.85725 10.5075L12.0698 12.2499Z" fill="#4A90E2"/>
<path d="M3.5782 8.32286C3.43549 7.89639 3.36299 7.44957 3.36353 6.99986C3.36353 6.54369 3.43645 6.10561 3.57178 5.69611L1.22328 3.87903C0.742833 4.84893 0.495165 5.9175 0.499946 6.99986C0.499946 8.11986 0.759529 9.17569 1.22153 10.1119L3.5782 8.32286Z" fill="#FBBC05"/>
</g>
<defs>
<clipPath id="clip0">
<rect width="14" height="14" fill="white" transform="translate(0.5)"/>
</clipPath>
</defs>
</svg>
